<?xml version="1.0" standalone="no"?><!DOCTYPE svg PUBLIC "-//W3C//DTD SVG 1.1//EN" "http://www.w3.org/Graphics/SVG/1.1/DTD/svg11.dtd"><svg class="icon" width="200px" height="200.00px" viewBox="0 0 1024 1024" version="1.1" xmlns="http://www.w3.org/2000/svg"><path d="M349.4912 320c9.8304 9.8304 9.8304 19.6608 0 29.5936C342.9376 352.8704 338.0224 354.5088 334.7456 354.5088c-3.2768 0-8.192-1.6384-14.7456-4.9152l-280.576-283.0336L39.424 256c0 13.2096-6.5536 19.6608-19.6608 19.6608S0 269.2096 0 256L0 19.6608C0 16.384 0.8192 13.9264 2.4576 12.288c0-6.5536 3.2768-9.8304 9.8304-9.8304C13.9264 0.9216 16.384 0 19.6608 0L256 0c13.1072 0 19.6608 6.5536 19.6608 19.6608 0 13.2096-6.5536 19.6608-19.6608 19.6608L66.4576 39.3216 349.4912 320zM320 674.4064c9.8304-9.8304 19.6608-9.8304 29.4912 0 9.8304 9.8304 9.8304 19.6608 0 29.5936l-283.0336 280.576L256 984.576c13.1072 0 19.6608 6.5536 19.6608 19.6608C275.6608 1017.4464 269.1072 1024 256 1024L19.6608 1024C16.384 1024 13.9264 1023.1808 12.288 1021.5424c-6.5536 0-9.8304-3.2768-9.8304-9.8304C0.8192 1010.0736 0 1007.616 0 1004.3392L0 768c0-13.1072 6.5536-19.6608 19.6608-19.6608S39.424 754.8928 39.424 768l0 189.5424L320 674.4064zM568.6272 568.6272C553.8816 583.3728 534.9376 590.7456 512 590.7456c-22.9376 0-41.8816-7.3728-56.6272-22.1184C440.6272 553.8816 433.2544 535.04 433.2544 512c0-22.9376 7.3728-41.8816 22.1184-56.6272C470.1184 440.6272 489.0624 433.2544 512 433.2544c22.9376 0 41.8816 7.3728 56.6272 22.1184C583.3728 470.1184 590.7456 489.0624 590.7456 512 590.7456 535.04 583.3728 553.8816 568.6272 568.6272zM551.424 512c0-26.2144-13.1072-39.424-39.424-39.424S472.576 485.7856 472.576 512c0 26.2144 13.1072 39.424 39.424 39.424S551.424 538.2144 551.424 512zM1021.5424 12.288C1023.1808 13.9264 1024 16.384 1024 19.6608L1024 256c0 13.2096-6.5536 19.6608-19.6608 19.6608S984.576 269.2096 984.576 256L984.576 66.4576l-280.576 283.0336C697.4464 352.8704 692.5312 354.5088 689.2544 354.5088c-3.2768 0-8.192-1.6384-14.7456-4.9152-9.8304-9.8304-9.8304-19.6608 0-29.5936l283.0336-280.576L768 39.424c-13.1072 0-19.6608-6.5536-19.6608-19.6608C748.3392 6.5536 754.8928 0 768 0l236.3392 0C1007.616 0 1010.0736 0.9216 1011.712 2.4576 1018.2656 2.4576 1021.5424 5.8368 1021.5424 12.288zM1024 1004.3392C1024 1007.616 1023.1808 1010.0736 1021.5424 1011.712c0 6.5536-3.2768 9.8304-9.8304 9.8304C1010.0736 1023.1808 1007.616 1024 1004.3392 1024L768 1024c-13.1072 0-19.6608-6.5536-19.6608-19.6608 0-13.1072 6.5536-19.6608 19.6608-19.6608l189.5424 0-283.0336-280.576c-9.8304-9.8304-9.8304-19.6608 0-29.5936 9.8304-9.8304 19.6608-9.8304 29.4912 0l280.576 283.136L984.576 768c0-13.1072 6.5536-19.6608 19.6608-19.6608S1024 754.8928 1024 768L1024 1004.3392z" /></svg>