<?xml version="1.0" standalone="no"?><!DOCTYPE svg PUBLIC "-//W3C//DTD SVG 1.1//EN" "http://www.w3.org/Graphics/SVG/1.1/DTD/svg11.dtd"><svg class="icon" width="200px" height="200.00px" viewBox="0 0 1024 1024" version="1.1" xmlns="http://www.w3.org/2000/svg"><path d="M114.304 144.426667l29.994667-30.293334 212.266666 210.090667-30.037333 30.293333zM114.261333 878.848l212.352-210.005333 29.994667 30.293333-212.352 210.048zM669.738667 699.306667l30.165333-30.208 211.2 211.2-30.208 30.165333zM669.098667 324.096l211.2-211.2 30.165333 30.208-211.2 211.2zM917.333333 320h-42.666666v-170.666667h-170.666667v-42.666666H896c12.8 0 21.333333 8.533333 21.333333 21.333333v192zM896 917.333333h-192v-42.666666h170.666667v-170.666667h42.666666V896c0 12.8-8.533333 21.333333-21.333333 21.333333zM320 917.333333H128c-12.8 0-21.333333-8.533333-21.333333-21.333333v-192h42.666666v170.666667h170.666667v42.666666zM149.333333 320h-42.666666V128c0-12.8 8.533333-21.333333 21.333333-21.333333h192v42.666666h-170.666667v170.666667z" /></svg>