<?xml version="1.0" standalone="no"?><!DOCTYPE svg PUBLIC "-//W3C//DTD SVG 1.1//EN" "http://www.w3.org/Graphics/SVG/1.1/DTD/svg11.dtd"><svg class="icon" width="200px" height="200.00px" viewBox="0 0 1024 1024" version="1.1" xmlns="http://www.w3.org/2000/svg"><path d="M503.655961 236.167814c64.729234 0 130.073474-33.857109 130.073474-69.704548s-62.23646-72.318072-126.965693-72.318072-127.588887 37.340443-127.588887 73.191976S439.550944 236.167814 503.655961 236.167814zM756.956991 443.60426 756.956991 336.121294c2.25639-17.831111 2.25639-35.878139 0-53.709249-18.514679-25.341155-49.063439-38.977733-80.287581-35.847439L532.282952 246.564605 372.337123 246.564605c-26.233478-2.974751-52.786227 0.771573-77.172637 10.891048-32.364105 20.538779-29.249161 22.343891-29.249161 79.665411l0 109.411899c0 28.318976-8.714476 72.318072 42.324968 72.318072 47.923476 0 47.923476-19.167548 47.923476-47.798633 0-40.330544-0.623193-50.848085-0.623193-74.68498 0-26.077935-2.491751-30.495548 6.844895-30.495548 9.336646 0 9.336646 0.372483 9.336646 28.068266l0 408.148747c0 17.926278 16.804734 37.340443 65.351404 37.340443s68.459185-15.745612 68.459185-33.670867L505.532705 617.679901c0-17.926278 1.246387-26.635637 8.714476-26.635637s7.468089 8.714476 7.468089 26.635637l0 188.078563c11.965519 26.453489 40.630373 41.123606 69.082378 35.350113 25.618471 1.435699 49.716308-12.242835 61.61429-34.977629 0-71.634504 0.623193-390.473179 0.623193-413.06778 0-12.44852-1.868557-27.695782 6.844895-27.695782s7.468089 4.231371 7.468089 21.845541l0 68.956511c0 47.114041 13.06762 59.498092 45.431725 59.498092 47.916313-0.36839 44.185338-46.423309 44.185338-72.064292L756.956991 443.603237z" fill="#878788" /></svg>