<?xml version="1.0" standalone="no"?><!DOCTYPE svg PUBLIC "-//W3C//DTD SVG 1.1//EN" "http://www.w3.org/Graphics/SVG/1.1/DTD/svg11.dtd"><svg class="icon" width="200px" height="200.00px" viewBox="0 0 1024 1024" version="1.1" xmlns="http://www.w3.org/2000/svg"><path d="M896 311.466667h-81.066667V42.666667c0-25.6-17.066667-42.666667-42.666666-42.666667H42.666667C17.066667 0 0 17.066667 0 42.666667v938.666666c0 25.6 17.066667 42.666667 42.666667 42.666667h853.333333c72.533333 0 128-55.466667 128-128V439.466667c0-68.266667-55.466667-128-128-128zM85.333333 85.333333h644.266667v810.666667c0 17.066667 4.266667 29.866667 8.533333 42.666667H85.333333V85.333333z m853.333334 810.666667c0 25.6-17.066667 42.666667-42.666667 42.666667h-34.133333c-25.6 0-42.666667-17.066667-42.666667-42.666667V396.8H896c25.6 0 42.666667 17.066667 42.666667 42.666667V896z" fill="#374151" /><path d="M507.733333 665.6H324.266667L285.866667 810.666667H166.4L349.866667 243.2h132.266666L665.6 810.666667h-119.466667l-38.4-145.066667z m-25.6-89.6l-17.066666-64c-17.066667-59.733333-34.133333-123.733333-51.2-187.733333-12.8 64-29.866667 128-46.933334 187.733333l-17.066666 64h132.266666z" fill="#374151" /></svg>