<?xml version="1.0" standalone="no"?><!DOCTYPE svg PUBLIC "-//W3C//DTD SVG 1.1//EN" "http://www.w3.org/Graphics/SVG/1.1/DTD/svg11.dtd"><svg class="icon" width="200px" height="200.00px" viewBox="0 0 1024 1024" version="1.1" xmlns="http://www.w3.org/2000/svg"><path d="M298.666667 341.333333V226.773333C298.666667 103.68 375.68 0 478.208 0h67.584C648.192 0 725.333333 103.808 725.333333 226.773333V341.333333h85.546667C857.898667 341.333333 896 379.52 896 426.410667v512.512A85.077333 85.077333 0 0 1 810.88 1024H213.12A85.162667 85.162667 0 0 1 128 938.922667V426.410667C128 379.434667 166.101333 341.333333 213.12 341.333333H298.666667z m85.333333 0h256V226.773333C640 146.346667 594.602667 85.333333 545.792 85.333333h-67.584C429.226667 85.333333 384 146.261333 384 226.773333V341.333333z m170.666667 329.984c25.6-14.72 42.666667-42.325333 42.666666-73.984 0-47.445333-38.186667-85.333333-85.333333-85.333333-47.445333 0-85.333333 38.186667-85.333333 85.333333 0 31.786667 17.152 59.306667 42.666666 73.984v96.298667a42.666667 42.666667 0 1 0 85.333334 0.426667v-96.725334z" fill="#3D3D3D" /></svg>