<?xml version="1.0" standalone="no"?><!DOCTYPE svg PUBLIC "-//W3C//DTD SVG 1.1//EN" "http://www.w3.org/Graphics/SVG/1.1/DTD/svg11.dtd"><svg class="icon" width="200px" height="200.00px" viewBox="0 0 1024 1024" version="1.1" xmlns="http://www.w3.org/2000/svg"><path d="M878.933333 853.333333L789.333333 763.733333c57.6-66.133333 87.466667-151.466667 87.466667-241.066666C876.8 315.733333 710.4 149.333333 503.466667 149.333333S130.133333 315.733333 130.133333 522.666667 298.666667 896 503.466667 896c89.6 0 172.8-32 241.066666-87.466667l91.733334 91.733334c6.4 6.4 14.933333 8.533333 23.466666 8.533333s17.066667-2.133333 23.466667-8.533333c8.533333-14.933333 8.533333-34.133333-4.266667-46.933334zM194.133333 522.666667c0-170.666667 138.666667-309.333333 309.333334-309.333334s309.333333 138.666667 309.333333 309.333334c0 81.066667-32 157.866667-87.466667 215.466666-2.133333 0-2.133333 2.133333-4.266666 2.133334 0 0-2.133333 2.133333-2.133334 4.266666C661.333333 800 584.533333 832 503.466667 832c-170.666667 0-309.333333-138.666667-309.333334-309.333333z" /></svg>