<?xml version="1.0" standalone="no"?><!DOCTYPE svg PUBLIC "-//W3C//DTD SVG 1.1//EN" "http://www.w3.org/Graphics/SVG/1.1/DTD/svg11.dtd"><svg class="icon" width="200px" height="200.00px" viewBox="0 0 1024 1024" version="1.1" xmlns="http://www.w3.org/2000/svg"><path d="M629.523989 448.421449h259.130762c10.11477 0 19.747883 4.334901 26.491063 11.559736 6.74318 7.224835 10.596425 16.857949 10.596425 26.972719v427.228598c0.481656 10.11477-3.37159 19.747883-10.596425 26.972719-6.74318 7.224835-16.376294 11.559737-26.491063 11.559737H444.568203c-10.11477 0-19.747883-4.334901-26.491063-11.559737-6.74318-7.224835-10.596425-16.857949-10.596425-26.972719v-271.65381H147.868297c-10.11477 0-19.747883-4.334901-26.491063-11.559736-6.74318-7.224835-10.596425-16.857949-10.596425-26.972719V176.767639c-0.481656-10.11477 3.37159-19.747883 10.596425-26.972719 6.74318-7.224835 16.376294-11.559737 26.491063-11.559737H592.4365c10.11477 0 19.747883 4.334901 26.491063 11.559737 6.74318 7.224835 10.596425 16.857949 10.596426 26.972719v271.65381z m-481.655692 155.574788H592.4365V176.767639H147.868297v427.228598z m506.701788-13.004704L573.170273 813.034807h36.124177l19.747883-57.317027h90.55127l19.747883 57.317027h34.67921l-81.881467-222.043274h-37.569144z m-17.821261 135.826905l35.160866-100.666039 37.569143 100.666039h-72.730009zM354.498589 228.304798h27.93603v56.835371h107.890875v149.79492H462.389464v-17.82126H382.434619v104.037629h-26.491063V417.113829H278.39699v17.82126H250.46096V285.140169h105.482596l-1.444967-56.835371zM278.39699 388.214487h77.06491V314.039511h-77.06491v74.174976z m104.037629 0H462.389464V314.039511H382.434619v74.174976z m0 0" fill="#88909D" /><path d="M898.287865 1017.25682H125.712135c-65.505174 0-118.968956-53.463782-118.968955-118.968955V125.712135c0-65.505174 53.463782-118.968956 118.968955-118.968955h773.057385c65.505174 0 118.968956 53.463782 118.968956 118.968955v773.057385c-0.481656 65.023518-53.945437 118.4873-119.450611 118.4873zM125.712135 36.124177c-49.610536 0-89.587959 39.977422-89.587958 89.587958v773.057385c0 49.610536 39.977422 89.587959 89.587958 89.587959h773.057385c49.610536 0 89.587959-39.977422 89.587959-89.587959V125.712135c0-49.610536-39.977422-89.587959-89.587959-89.587958H125.712135z" fill="#88909D" /></svg>